<svg xmlns="http://www.w3.org/2000/svg" xmlns:xlink="http://www.w3.org/1999/xlink" version="1.1" id="Layer_1" x="0px" y="0px" style="enable-background:new 0 0 1169.79 207.51;" xml:space="preserve" viewBox="56.19 75.35 1058.79 54.48">
<style type="text/css">
	.st0{fill:#FFFFFF;}
	.st1{fill:none;stroke:#FFFFFF;stroke-miterlimit:10;}
</style>
<line class="st0" x1="1050.51" y1="113.9" x2="1050.51" y2="111.25"/>
<line class="st1" x1="849.45" y1="75.85" x2="849.45" y2="129.33"/>
<line class="st0" x1="1050.54" y1="113.9" x2="1050.54" y2="111.25"/>
<g>
	<polygon class="st0" points="69.88,115.22 59.61,98.22 59.69,115.22 56.19,115.22 56.19,92.56 60.28,92.56 70.11,108.69    70.04,92.56 73.5,92.56 73.5,115.22  "/>
	<path class="st0" d="M96.83,115.61l-2.32-7h-7.59l-2.44,7l-3.54-0.55l8.42-22.51h3.34l7.79,22.47L96.83,115.61z M90.77,97   l-2.87,8.74h5.63L90.77,97z"/>
	<polygon class="st0" points="114.34,95.66 114.34,115.22 110.6,115.22 110.6,95.66 103.95,95.66 103.95,92.56 121.11,92.56    121.11,95.66  "/>
	<rect x="129.44" y="92.56" class="st0" width="3.74" height="22.66"/>
	<path class="st0" d="M152.07,115.77c-6.37,0-9.29-5.55-9.29-11.92c0-7.12,3.97-12.04,9.29-12.04c6.41,0,9.37,5.63,9.37,12.04   C161.43,110.97,157.38,115.77,152.07,115.77 M151.83,94.96c-4.37,0-5.12,5-5.12,8.18c-0.04,3.62,0.67,9.52,5.55,9.52   c4.49,0,5.19-4.96,5.19-8.22C157.46,100.86,156.83,94.96,151.83,94.96"/>
	<polygon class="st0" points="184.58,115.22 174.31,98.22 174.39,115.22 170.89,115.22 170.89,92.56 174.98,92.56 184.82,108.69    184.74,92.56 188.2,92.56 188.2,115.22  "/>
	<path class="st0" d="M211.54,115.61l-2.32-7h-7.59l-2.44,7l-3.54-0.55l8.42-22.51h3.34l7.79,22.47L211.54,115.61z M205.48,97   l-2.87,8.74h5.63L205.48,97z"/>
	<polygon class="st0" points="223.42,115.22 223.42,92.56 227.16,92.56 227.16,112.27 235.7,112.27 235.7,115.22  "/>
	<polygon class="st0" points="272.16,115.34 271.3,98.54 266.14,115.22 262.84,115.22 257.76,98.54 256.78,115.34 253.2,115.22    254.85,92.56 259.37,92.56 264.69,109.91 269.96,92.56 274.36,92.56 275.9,115.22  "/>
	<path class="st0" d="M294.31,115.69c-4.88,0-8.34-3.03-8.34-7.87V92.56h3.74v15.46c0,2.44,1.77,4.6,4.6,4.6   c2.79,0,4.52-1.97,4.52-4.68V92.56h3.74v15.27C302.58,112.9,298.49,115.69,294.31,115.69"/>
	<path class="st0" d="M318,115.77c-2.16,0-4.92-1.06-6.69-1.93l1.61-3.07c1.46,0.87,3.86,1.89,5.47,1.89c2.32,0,3.74-1.26,3.74-3.07   c0-4.84-9.8-4.88-9.8-11.84c0-3.31,2.87-5.86,6.57-5.86c2.99,0,5.15,0.91,6.45,1.65l-1.38,2.83c-1.42-0.79-3.19-1.5-5-1.5   c-1.46,0-2.79,1.06-2.79,2.6c0,4.37,9.92,4.72,9.92,11.73C326.11,113.61,322.84,115.77,318,115.77"/>
	<polygon class="st0" points="336,115.22 336,92.56 348.55,92.56 348.55,95.55 339.73,95.55 339.73,102.12 347.09,102.12    347.09,105.03 339.73,105.03 339.73,112.27 349.53,112.27 349.53,115.22  "/>
	<path class="st0" d="M367.55,115.69c-4.88,0-8.34-3.03-8.34-7.87V92.56h3.74v15.46c0,2.44,1.77,4.6,4.6,4.6   c2.79,0,4.52-1.97,4.52-4.68V92.56h3.74v15.27C375.82,112.9,371.72,115.69,367.55,115.69"/>
	<polygon class="st0" points="405.48,115.34 404.62,98.54 399.46,115.22 396.16,115.22 391.08,98.54 390.1,115.34 386.52,115.22    388.17,92.56 392.7,92.56 398.01,109.91 403.28,92.56 407.69,92.56 409.22,115.22  "/>
	<path class="st0" d="M507.25,115.67l-2.32-7h-7.59l-2.44,7l-3.54-0.55l8.42-22.51h3.34l7.79,22.47L507.25,115.67z M501.19,97.06   l-2.87,8.74h5.63L501.19,97.06z"/>
	<polygon class="st0" points="537.2,115.39 536.33,98.59 531.18,115.27 527.87,115.27 522.8,98.59 521.81,115.39 518.23,115.27    519.88,92.61 524.41,92.61 529.72,109.96 534.99,92.61 539.4,92.61 540.94,115.27  "/>
	<polygon class="st0" points="550.88,115.27 550.88,92.61 563.43,92.61 563.43,95.6 554.62,95.6 554.62,102.17 561.98,102.17    561.98,105.08 554.62,105.08 554.62,112.32 564.42,112.32 564.42,115.27  "/>
	<path class="st0" d="M584.96,115.71l-5.08-10.27c-0.16,0.04-0.32,0.04-0.47,0.04h-2.01v9.84h-3.74v-22.7h5.98   c5,0,7.52,2.91,7.52,6.33c0,3.15-2.4,5.04-3.9,5.74l5.71,10.23L584.96,115.71z M579.65,95.44h-2.24v7.16h2.24   c2.28,0,3.7-1.14,3.7-3.5C583.34,97.13,582.2,95.44,579.65,95.44"/>
	<rect x="598.44" y="92.61" class="st0" width="3.74" height="22.66"/>
	<path class="st0" d="M622.2,115.82c-6.02,0-10.07-3.46-10.07-12.08c0-7.24,4.21-11.77,10.9-11.77c1.73,0,3.78,0.59,5.08,1.3   l-1.18,2.75c-1.46-0.55-2.68-0.94-3.97-0.94c-3.07,0-6.93,1.97-6.93,8.54c0,7,2.6,8.97,6.3,8.97c2.4,0,3.38-0.39,5.43-1.22   l0.98,2.91C627.31,115,624.79,115.82,622.2,115.82"/>
	<path class="st0" d="M649.7,115.67l-2.32-7h-7.59l-2.44,7l-3.54-0.55l8.42-22.51h3.34l7.79,22.47L649.7,115.67z M643.64,97.06   l-2.87,8.74h5.63L643.64,97.06z"/>
	<polygon class="st0" points="674.88,115.27 664.61,98.28 664.69,115.27 661.19,115.27 661.19,92.61 665.28,92.61 675.12,108.74    675.04,92.61 678.5,92.61 678.5,115.27  "/>
	<rect x="699.78" y="92.61" class="st0" width="3.74" height="22.66"/>
	<polygon class="st0" points="727.17,115.27 716.9,98.28 716.98,115.27 713.47,115.27 713.47,92.61 717.57,92.61 727.4,108.74    727.32,92.61 730.79,92.61 730.79,115.27  "/>
	<path class="st0" d="M747.86,115.27h-6.53V92.61h6.65c6.89,0,9.6,5.08,9.6,11.14C757.58,111.26,753.85,115.27,747.86,115.27    M747.75,95.52h-2.68v16.84h2.4c3.97,0,6.06-2.36,6.06-8.7C753.53,99.73,752.03,95.52,747.75,95.52"/>
	<rect x="766.59" y="92.61" class="st0" width="3.74" height="22.66"/>
	<path class="st0" d="M794.07,115.67l-2.32-7h-7.59l-2.44,7l-3.54-0.55l8.42-22.51h3.34l7.79,22.47L794.07,115.67z M788.01,97.06   l-2.87,8.74h5.63L788.01,97.06z"/>
	<polygon class="st0" points="819.25,115.27 808.98,98.28 809.06,115.27 805.56,115.27 805.56,92.61 809.65,92.61 819.49,108.74    819.41,92.61 822.87,92.61 822.87,115.27  "/>
	<g>
		<path class="st0" d="M425.72,103.91c-0.01,0-0.02,0-0.04,0c-1.49,0.01-2.87,0.78-3.9,2.17c-0.91,1.22-1.44,2.78-1.43,4.19    c0.02,2.66,1.1,5.5,4.07,5.5c0.01,0,0.03,0,0.04,0l0.26,0c2.88-0.03,5.1-3.02,5.07-6.82    C429.78,106.44,428.37,103.91,425.72,103.91z M427.34,109.36c-0.2,2.35-1.18,4.82-2.9,4.7c-1.42-0.1-1.74-1.85-1.75-3.3    c-0.02-2.33,1.34-5.19,2.96-5.21c0.01,0,0.01,0,0.02,0c0.39,0,0.71,0.14,0.97,0.42C427.21,106.58,427.47,107.84,427.34,109.36z"/>
		<path class="st0" d="M438.34,97c-1.85,0.02-3.48,1.65-3.73,3.71l-0.43,3.83l-1.86,0.02l-0.14,1.55l1.82-0.02l-1.39,12.92    c-0.08,0.77-0.41,2.05-1.65,2.06c-0.43-0.02-0.85-0.13-1.31-0.39l-0.33-0.19l-0.1,1.81l0.18,0.05c0.65,0.2,1.19,0.29,1.75,0.29    c0.02,0,0.03,0,0.04,0c1.87-0.02,3.52-1.69,3.75-3.82l1.37-12.79l2.61-0.02l0.14-1.55l-2.58,0.02l0.42-3.85    c0.14-1.3,0.74-2.05,1.65-2.06c0,0,0,0,0.01,0c0.3,0,0.78,0.17,1.16,0.41l0.32,0.2l0.22-1.72l-0.15-0.07    C439.8,97.23,439.01,97.02,438.34,97z"/>
		<path class="st0" d="M452.42,101.11l-2.25,1.1l-0.24,2.41l-1.81,0.02l-0.16,1.34l1.81-0.02l-0.62,6.14c-0.1,1.03,0.19,2,0.79,2.66    c0.48,0.52,1.12,0.81,1.82,0.81c0.01,0,0.02,0,0.02,0c1.13-0.01,1.67-0.26,2.57-0.67l0.47-0.21l0.15-1.55l-0.61,0.25    c-0.6,0.24-0.99,0.41-1.55,0.41c-0.35,0.01-0.64-0.12-0.86-0.36c-0.34-0.36-0.51-0.98-0.45-1.65l0.55-5.84l3.09-0.03l0.15-1.47    l-3.13,0.03L452.42,101.11z"/>
		<path class="st0" d="M468.88,112.96c-0.2,0.28-0.58,0.66-0.78,0.66c0,0,0,0,0,0c-0.12,0-0.17-0.05-0.2-0.08    c-0.12-0.16-0.07-0.53-0.04-0.67l0.65-5.84c0.12-1.01-0.1-1.92-0.61-2.56c-0.42-0.52-1.02-0.84-1.72-0.92    c-1.79-0.19-3.27,0.65-4.16,1.25l0.51-8.16l-2.45,1.06l-1.19,17.43l2.3-0.02l0.66-8.59c0.42-0.49,1.49-1.15,2.33-1.12    c0.56,0.01,1.12,0.27,1.5,0.69c0.23,0.25,0.5,0.69,0.45,1.29l-0.57,5.54c-0.07,0.72,0.14,1.4,0.57,1.88    c0.34,0.37,0.77,0.57,1.23,0.57c0,0,0.01,0,0.01,0c1.1-0.01,1.82-0.79,2.43-1.62l0.12-0.17l-0.89-0.87L468.88,112.96z"/>
		<path class="st0" d="M476.3,113.61c-1.34-0.11-2.01-1.25-1.9-3.2c0-0.06,0.01-0.13,0.02-0.2c0-0.06,0.01-0.11,0.01-0.17    c0.4,0.06,0.94,0.08,1.6,0.08c1.07-0.01,2.34-0.42,3.31-1.07c1.17-0.78,1.81-1.82,1.8-2.93c-0.01-0.68-0.32-1.37-0.87-1.87    c-0.55-0.51-1.29-0.8-2-0.79c-3.36,0.03-6.21,3.78-6.18,6.83c0.03,3.14,1.52,4.99,4.09,5.07c0.05,0,0.09,0,0.14,0    c1.48,0,3.07-0.73,3.75-1.27l0.08-0.07l0.14-2.31l-0.44,0.44C479.16,112.82,477.49,113.7,476.3,113.61z M474.59,108.57    c0.27-1.49,2-3.58,3.37-3.59c0.26-0.02,0.49,0.1,0.65,0.31c0.16,0.21,0.25,0.49,0.25,0.81c0.01,0.89-0.67,1.48-1.23,1.83    c-0.67,0.41-1.54,0.67-2.23,0.68C475.09,108.62,474.79,108.59,474.59,108.57z"/>
	</g>
</g>
<g>
	<g>
		<path class="st0" d="M929.6,95.46c-0.72-2.56-1.76-5.31-5.23-5.31c-3.07,0-4.43,2.24-4.43,4.39c0,2.91,1.92,4.27,5.07,5.91    c3.11,1.6,6.91,3.47,6.91,7.94c0,4.19-3.55,7.55-8.86,7.55c-1.64,0-2.91-0.32-3.91-0.6c-1-0.36-1.6-0.64-1.96-0.84    c-0.32-0.84-0.84-4.27-1.08-6.19l1.16-0.28c0.64,2.44,2.44,6.47,6.55,6.47c2.99,0,4.79-1.88,4.79-4.79c0-2.95-2.2-4.35-5.19-5.95    c-2.56-1.36-6.59-3.35-6.59-7.86c0-3.83,3.07-7.11,8.22-7.11c1.84,0,3.51,0.44,5.03,0.92c0.16,1.44,0.36,2.99,0.68,5.51    L929.6,95.46z"/>
		<path class="st0" d="M956.39,115.34v-1.04c2.36-0.24,2.79-0.4,2.79-3.23v-6.67c0-2.83-1-4.63-3.51-4.63    c-1.44,0-2.95,0.8-4.47,2.08c0.08,0.48,0.12,0.92,0.12,1.68v7.78c0,2.52,0.36,2.75,2.55,2.99v1.04h-8.54v-1.04    c2.47-0.24,2.83-0.44,2.83-3.07v-6.87c0-2.95-1.04-4.59-3.47-4.59c-1.6,0-3.15,1.08-4.35,2.08v9.38c0,2.59,0.32,2.83,2.28,3.07    v1.04h-8.42v-1.04c2.63-0.24,2.99-0.48,2.99-3.07v-8.26c0-2.56-0.12-2.75-2.44-3.11v-0.92c1.76-0.32,3.79-0.84,5.55-1.64v3.23    c0.84-0.56,1.72-1.28,2.91-2.04c1.04-0.64,2-1.08,3.27-1.08c1.92,0,3.63,1.2,4.43,3.27c1.16-0.88,2.32-1.64,3.31-2.24    c0.84-0.56,1.88-1.04,2.99-1.04c3.11,0,5.07,2.2,5.07,6.11v7.7c0,2.67,0.32,2.83,2.59,3.07v1.04H956.39z"/>
		<path class="st0" d="M967.09,115.34v-1.04c2.51-0.24,2.79-0.48,2.79-3.19v-8.22c0-2.47-0.12-2.63-2.52-3.03v-0.96    c2.04-0.32,3.91-0.84,5.67-1.56v13.77c0,2.71,0.28,2.95,2.83,3.19v1.04H967.09z M969.2,91.91c0-1.2,0.96-2.08,2.04-2.08    c1.12,0,2,0.88,2,2.08c0,1.08-0.88,2.04-2.04,2.04C970.16,93.94,969.2,92.98,969.2,91.91z"/>
		<path class="st0" d="M985.21,115.3c-0.68,0.36-1.32,0.52-1.68,0.52c-2.52,0-3.91-1.6-3.91-4.75V99.45h-2.75l-0.16-0.4l1.08-1.16    h1.84v-2.91l2.59-2.63l0.56,0.08v5.47h4.51c0.36,0.4,0.24,1.28-0.24,1.56h-4.27v10.26c0,3.23,1.32,3.83,2.32,3.83    c1,0,1.92-0.4,2.48-0.68l0.36,1.04L985.21,115.3z"/>
		<path class="st0" d="M1000.5,115.34v-1.04c2.32-0.24,2.63-0.48,2.63-3.07v-6.63c0-3.27-1.24-4.91-3.91-4.91    c-1.52,0-3.03,0.76-4.15,2.04v9.5c0,2.56,0.2,2.83,2.55,3.07v1.04h-8.46v-1.04c2.4-0.2,2.75-0.44,2.75-3.07V92.19    c0-2.52-0.08-2.71-2.71-2.95v-0.92c1.92-0.28,4.31-0.92,5.87-1.4v13.41c1.4-1.44,3.55-2.91,5.71-2.91c3.23,0,5.51,2.04,5.51,6.83    v6.99c0,2.63,0.28,2.87,2.63,3.07v1.04H1000.5z"/>
		<path class="st0" d="M1021.18,102.6c-0.76-2.36-2.16-3.95-4.11-3.95c-1.52,0-2.59,1.2-2.59,2.75c0,1.8,1.6,2.71,3.39,3.47    c2.99,1.24,5.03,2.67,5.03,5.43c0,3.63-3.39,5.51-6.59,5.51c-2.04,0-3.87-0.76-4.59-1.36c-0.28-0.56-0.64-3.27-0.64-4.71l1.04-0.2    c0.72,2.63,2.52,4.95,4.91,4.95c1.48,0,2.83-1.12,2.83-2.79c0-1.76-1.16-2.71-3.15-3.63c-2.4-1.12-4.99-2.44-4.99-5.51    c0-2.79,2.4-5.15,6.07-5.15c1.64,0,2.71,0.36,3.55,0.68c0.32,0.92,0.76,3.27,0.88,4.27L1021.18,102.6z"/>
		<path class="st0" d="M1043.3,106.32c0,6.43-4.71,9.5-8.66,9.5c-5.47,0-8.74-4.39-8.74-8.82c0-6.59,5.11-9.58,8.74-9.58    C1039.58,97.41,1043.3,101.37,1043.3,106.32z M1029.6,105.72c0,5.03,2.2,8.78,5.47,8.78c2.48,0,4.51-1.84,4.51-7.31    c0-4.67-1.88-8.46-5.35-8.46C1031.76,98.73,1029.6,101.21,1029.6,105.72z"/>
		<path class="st0" d="M1056.87,115.34v-1.04c2.36-0.24,2.63-0.56,2.63-3.31v-6.67c0-2.75-0.96-4.55-3.63-4.55    c-1.6,0-3.15,1-4.35,2.04v9.38c0,2.71,0.24,2.87,2.59,3.11v1.04h-8.66v-1.04c2.72-0.28,2.91-0.48,2.91-3.11v-8.26    c0-2.56-0.24-2.67-2.4-3.07v-0.92c1.92-0.36,3.79-0.84,5.55-1.64v3.19c0.8-0.6,1.68-1.2,2.67-1.88c1.12-0.72,2.16-1.2,3.31-1.2    c3.15,0,5.15,2.2,5.15,6.07v7.7c0,2.71,0.2,2.87,2.52,3.11v1.04H1056.87z"/>
		<path class="st0" d="M1067.41,115.34v-1.04c2.51-0.24,2.79-0.48,2.79-3.19v-8.22c0-2.47-0.12-2.63-2.52-3.03v-0.96    c2.04-0.32,3.91-0.84,5.67-1.56v13.77c0,2.71,0.28,2.95,2.83,3.19v1.04H1067.41z M1069.53,91.91c0-1.2,0.96-2.08,2.04-2.08    c1.12,0,2,0.88,2,2.08c0,1.08-0.88,2.04-2.04,2.04C1070.48,93.94,1069.53,92.98,1069.53,91.91z"/>
		<path class="st0" d="M1090.84,115.82c-0.6,0-1.44-0.36-1.88-0.76c-0.52-0.56-0.76-1.12-0.96-1.8c-1.6,1.08-3.51,2.56-4.71,2.56    c-2.83,0-4.79-2.36-4.79-4.87c0-1.96,1.04-3.19,3.23-3.95c2.4-0.8,5.31-1.88,6.19-2.59v-0.72c0-2.87-1.36-4.51-3.35-4.51    c-0.8,0-1.4,0.32-1.8,0.8c-0.52,0.52-0.88,1.4-1.2,2.63c-0.16,0.64-0.6,0.92-1.16,0.92c-0.72,0-1.76-0.8-1.76-1.72    c0-0.6,0.52-1.04,1.28-1.6c1.12-0.8,3.71-2.36,5.99-2.79c1.2,0,2.39,0.36,3.27,1.08c1.4,1.16,1.8,2.79,1.8,4.87v7.43    c0,1.8,0.72,2.4,1.4,2.4c0.48,0,1.04-0.2,1.44-0.44l0.4,1.04L1090.84,115.82z M1087.93,105.76c-0.84,0.44-2.75,1.28-3.59,1.68    c-1.56,0.72-2.44,1.48-2.44,2.91c0,2.08,1.6,3.07,2.83,3.07c1.04-0.04,2.44-0.72,3.19-1.44V105.76z"/>
		<path class="st0" d="M1106.69,115.34v-1.04c2.36-0.24,2.63-0.56,2.63-3.31v-6.67c0-2.75-0.96-4.55-3.63-4.55    c-1.6,0-3.15,1-4.35,2.04v9.38c0,2.71,0.24,2.87,2.59,3.11v1.04h-8.66v-1.04c2.72-0.28,2.91-0.48,2.91-3.11v-8.26    c0-2.56-0.24-2.67-2.4-3.07v-0.92c1.92-0.36,3.79-0.84,5.55-1.64v3.19c0.8-0.6,1.68-1.2,2.67-1.88c1.12-0.72,2.16-1.2,3.31-1.2    c3.15,0,5.15,2.2,5.15,6.07v7.7c0,2.71,0.2,2.87,2.52,3.11v1.04H1106.69z"/>
	</g>
	<g>
		<path class="st0" d="M901.04,106.16c-1.2-2.07-3.1-2.09-3.34-2.08c0,0,0,0,0-0.01l8.01-1.67l-8.01-1.67l0,0    c0.08-0.08,1.64-1.45,3.98-1.48c1.76-0.03,3.29-2.18,2.31-3.84c0,0-0.29,2.6-3.58,1.74c-2.31-0.61-3.67,0.72-3.83,0.89l0,0    l4.48-6.85l-6.85,4.48c0,0,0,0,0,0c0-0.1,0.13-2.18,1.76-3.86c1.23-1.26,0.78-3.87-1.08-4.35c0,0,1.64,2.05-1.3,3.76    c-2.07,1.2-2.09,3.1-2.08,3.34l0,0l-1.67-8.01l-1.67,8.01c0,0,0,0,0,0c-0.07-0.07-1.45-1.63-1.49-3.98    c-0.03-1.76-2.18-3.29-3.84-2.31c0,0,2.6,0.29,1.74,3.58c-0.61,2.32,0.72,3.68,0.89,3.83l0,0l-6.85-4.48l0,0l0,0l3.65,5.58    l0.83,1.27c0,0,0,0,0,0c-0.07,0-2.17-0.12-3.86-1.76c-1.26-1.23-3.87-0.78-4.35,1.08c0,0,2.05-1.64,3.76,1.3    c1.21,2.07,3.11,2.09,3.34,2.08c0,0,0,0,0,0l-8.01,1.67l8.01,1.67v0c-0.05,0.05-1.62,1.45-3.98,1.49    c-1.76,0.03-3.29,2.18-2.32,3.84c0,0,0.29-2.6,3.58-1.74c2.32,0.61,3.68-0.73,3.83-0.89c0,0,0,0,0,0.01l-4.48,6.84l6.84-4.48    c0,0.07-0.12,2.17-1.76,3.86c-1.23,1.26-0.78,3.87,1.08,4.35c0,0-1.64-2.05,1.3-3.76c2.07-1.21,2.09-3.11,2.08-3.34    c0,0,0,0,0.01,0l1.67,8.01l1.67-8.01l0,0c0.06,0.07,1.45,1.63,1.49,3.98c0.03,1.76,2.18,3.29,3.84,2.31c0,0-2.6-0.29-1.74-3.58    c0.61-2.32-0.72-3.68-0.89-3.83c0,0,0,0,0.01,0l6.84,4.48l-2.37-3.61l-2.12-3.23l0,0c0.09,0,2.18,0.13,3.86,1.76    c1.26,1.23,3.87,0.78,4.35-1.08C904.8,107.46,902.75,109.1,901.04,106.16z"/>
	</g>
</g>
</svg>