<svg width="225" height="15" viewBox="0 0 225 15" fill="none" xmlns="http://www.w3.org/2000/svg">
<path d="M7.99831 12V0.879999H5.87031L5.91831 5.424C5.93431 6.192 6.01431 7.616 6.09431 8.48C5.87031 7.68 5.43831 6.512 4.87831 5.328L2.75031 0.879999H0.270313V12H2.43031L2.36631 7.248C2.35031 6.32 2.33431 5.008 2.25431 4.096C2.46231 4.784 3.13431 6.352 3.75831 7.744L5.66231 12H7.99831ZM21.1153 12L17.6113 0.848H15.1953L11.5473 12H13.8833L14.6673 9.36H17.9313L18.7153 12H21.1153ZM17.3873 7.504H15.2113C15.4513 6.768 15.5953 6.24 15.8033 5.44C15.9953 4.704 16.2673 3.552 16.3313 3.296L16.7793 5.264C16.9553 6.032 17.3073 7.264 17.3873 7.504ZM31.0169 0.879999H23.0009V2.736H25.7209V12H27.9929V2.736H30.6489L31.0169 0.879999ZM36.7126 12V0.879999H34.3766V12H36.7126ZM49.7509 0.879999H47.3989L45.5109 6.384C45.3029 6.992 45.0149 7.92 44.8709 8.608C44.6949 7.792 44.5189 7.168 44.3589 6.672L42.5189 0.879999H40.0709L43.8469 12.08H45.8789L49.7509 0.879999ZM59.5941 12V10.08H55.3861V7.104H58.5381V5.28H55.3861V2.704H59.1621L59.4501 0.879999H53.1141V12H59.5941ZM78.0377 12L74.0857 6.032L77.6377 0.879999H74.8857L71.7177 5.952V0.879999H69.4297V12H71.7177V6.192L75.0937 12H78.0377ZM89.1202 12V0.879999H86.9922L87.0402 5.424C87.0562 6.192 87.1362 7.616 87.2162 8.48C86.9922 7.68 86.5602 6.512 86.0002 5.328L83.8722 0.879999H81.3922V12H83.5522L83.4882 7.248C83.4722 6.32 83.4562 5.008 83.3762 4.096C83.5842 4.784 84.2562 6.352 84.8802 7.744L86.7842 12H89.1202ZM103.037 6.384C103.037 2.896 101.213 0.735999 98.2532 0.735999C97.4212 0.735999 96.6052 0.927999 95.9492 1.28C94.3492 2.16 93.4372 4.08 93.4372 6.48C93.4372 8.112 93.8692 9.52 94.7172 10.608C95.5652 11.712 96.6532 12.176 98.3332 12.176C99.2612 12.176 99.8852 12.032 100.557 11.664C102.173 10.784 103.037 8.896 103.037 6.384ZM100.461 6.448C100.461 9.28 99.8052 10.464 98.2532 10.464C97.7252 10.464 97.2772 10.336 96.9252 10.08C96.2532 9.6 95.9332 8.4 95.9332 6.48C95.9332 5.136 96.1092 4.16 96.4932 3.44C96.8132 2.848 97.4692 2.464 98.2212 2.464C99.4052 2.464 99.9972 3.312 100.173 3.872C100.365 4.496 100.461 5.312 100.461 6.448ZM119.4 0.879999H117.048L116.136 5.104C115.896 6.176 115.56 8.4 115.528 8.784C115.496 8.608 115.256 6.848 115.048 5.856L114.024 0.879999H111.576L110.584 5.376C110.248 6.88 110.056 8.448 110.008 8.912C109.976 8.688 109.832 7.2 109.416 5.264L108.456 0.879999H106.088L108.744 12.096H111.288L112.216 7.536C112.504 6.112 112.696 4.736 112.744 4.432C112.776 4.864 112.968 6.208 113.272 7.568L114.264 12.096H116.712L119.4 0.879999ZM129.349 10.144H125.365V0.879999H123.077V12H128.949L129.349 10.144ZM139.582 12V10.08H135.374V7.104H138.526V5.28H135.374V2.704H139.15L139.438 0.879999H133.102V12H139.582ZM151.708 6.48C151.708 4.48 151.212 3.056 150.188 2.048C149.516 1.376 148.7 1.024 147.756 0.943999C147.308 0.912 146.46 0.879999 145.82 0.879999H143.58V12H146.284C146.94 12 147.468 11.968 147.884 11.936C148.924 11.856 149.916 11.248 150.588 10.336C151.34 9.328 151.708 8 151.708 6.48ZM149.196 6.688C149.196 9.04 148.524 10.176 147.052 10.176H145.852V2.64H146.876C147.756 2.64 148.268 2.96 148.636 3.568C149.084 4.304 149.196 5.392 149.196 6.688ZM164.219 11.136V5.824H159.915L160.203 7.648H161.899V10.176C161.531 10.368 161.131 10.448 160.635 10.448C159.915 10.448 159.307 10.224 158.891 9.824C158.331 9.264 158.059 8.24 158.059 6.656C158.059 4.992 158.251 3.792 159.003 3.072C159.387 2.704 159.947 2.512 160.603 2.512C161.451 2.512 162.203 2.784 162.923 3.376L164.107 1.984C163.131 1.136 161.915 0.704 160.571 0.704C159.515 0.704 158.683 0.943999 157.867 1.488C156.315 2.528 155.547 4.192 155.547 6.544C155.547 8.208 155.915 9.392 156.731 10.432C157.627 11.584 158.859 12.128 160.523 12.128C161.835 12.128 163.083 11.808 164.219 11.136ZM175.344 12V10.08H171.136V7.104H174.288V5.28H171.136V2.704H174.912L175.2 0.879999H168.864V12H175.344ZM192.028 11.2C192.028 10.08 191.324 9.168 190.124 8.768C190.412 8.656 190.508 8.608 190.716 8.48C191.404 8.064 191.772 7.28 191.772 6.416C191.772 4.816 190.316 3.632 188.316 3.632C187.548 3.632 186.764 3.808 186.028 4.112C185.516 4.32 184.972 4.64 184.54 4.976L185.66 6.336C186.14 5.936 186.956 5.44 188.028 5.44C188.956 5.44 189.388 5.952 189.388 6.64C189.388 7.488 188.796 7.904 187.612 7.904C187.244 7.904 186.892 7.888 186.508 7.84V9.632C186.732 9.616 187.116 9.616 187.324 9.616C188.028 9.616 188.508 9.68 188.812 9.808C189.26 10 189.516 10.496 189.516 11.024C189.516 12.48 187.996 13.488 185.772 13.488C185.26 13.488 185.052 13.472 184.556 13.376L185.068 14.864C185.676 14.944 185.9 14.944 186.396 14.944C189.708 14.944 192.028 13.408 192.028 11.2ZM203.705 8.576C203.705 6.672 202.217 5.2 200.281 5.2C199.593 5.2 199.001 5.376 198.569 5.728C199.321 3.488 201.097 2.56 202.729 2.032L202.265 0.495999C200.937 0.879999 199.097 1.92 198.153 2.816C197.353 3.568 196.713 4.496 196.361 5.408C196.089 6.096 195.945 6.928 195.945 7.712C195.945 10.352 197.625 12.224 199.961 12.224C202.073 12.224 203.705 10.64 203.705 8.576ZM201.449 8.608C201.449 9.808 200.825 10.576 199.865 10.576C198.873 10.576 198.281 9.776 198.281 8.416C198.281 8.048 198.297 7.648 198.329 7.456C198.969 7.088 199.481 6.928 199.993 6.928C200.889 6.928 201.449 7.584 201.449 8.608ZM215.225 7.904C215.225 5.328 213.769 3.648 211.433 3.648C209.177 3.648 207.625 5.36 207.625 7.936C207.625 10.512 209.081 12.192 211.417 12.192C213.673 12.192 215.225 10.48 215.225 7.904ZM212.873 7.952C212.873 9.568 212.505 10.624 211.417 10.624C210.601 10.624 209.977 10.144 209.977 7.888C209.977 6.272 210.345 5.216 211.433 5.216C212.249 5.216 212.873 5.696 212.873 7.952ZM224.368 3.472C224.368 2.608 224.16 2.016 223.664 1.52C223.136 0.992 222.48 0.719999 221.616 0.719999C219.984 0.719999 218.912 1.84 218.912 3.504C218.912 5.184 219.968 6.256 221.616 6.256C222.544 6.256 223.136 5.984 223.616 5.52C224.144 5.008 224.368 4.384 224.368 3.472ZM222.592 3.44C222.592 4.576 222.304 5.056 221.632 5.056C221.264 5.056 220.976 4.88 220.832 4.656C220.688 4.432 220.656 4.016 220.656 3.456C220.656 2.976 220.688 2.656 220.8 2.384C220.928 2.08 221.232 1.904 221.6 1.904C221.872 1.904 222.112 2 222.272 2.16C222.496 2.368 222.592 2.8 222.592 3.44Z" fill="white"/>
</svg>
